<?xml version="1.0" encoding="iso-8859-1"?>
<!-- Generator: Adobe Illustrator 19.0.0, SVG Export Plug-In . SVG Version: 6.00 Build 0)  -->
<svg version="1.1" id="Capa_1" xmlns="http://www.w3.org/2000/svg" xmlns:xlink="http://www.w3.org/1999/xlink" x="0px" y="0px"
	 viewBox="0 0 512 512" style="enable-background:new 0 0 512 512;" xml:space="preserve">
<circle style="fill:#764C24;" cx="256" cy="256" r="256"/>
<path style="fill:#603C1B;" d="M512,256c0-4.304-0.11-8.583-0.32-12.835l-82.458-82.458l-2.913,2.749l-19.072-19.072
	l-129.958,39.699l111.582,111.583H369.68L234.722,160.707l-2.455,3.207l-19.53-19.53L82.779,184.083L204.75,306.054L73.5,338
	l37.488,37.488l-4.468,1.446l134.627,134.627C246.063,511.842,251.013,512,256,512C397.385,512,512,397.385,512,256z"/>
<polygon style="fill:#FFFFFF;" points="210.98,376.933 106.52,376.933 90.899,170.203 226.601,170.203 "/>
<polygon style="fill:#E0E0E0;" points="226.601,170.203 158.929,170.203 158.929,376.933 210.98,376.933 "/>
<polygon style="fill:#DCE6D3;" points="224.452,166.298 93.048,166.298 104.763,144.383 212.737,144.383 "/>
<polygon style="fill:#AEB2AA;" points="212.737,144.383 158.929,144.383 158.929,166.298 224.452,166.298 "/>
<rect x="82.78" y="160.71" style="fill:#C0C0C0;" width="151.94" height="23.376"/>
<rect x="158.93" y="160.71" style="fill:#758F9B;" width="75.79" height="23.376"/>
<polygon style="fill:#FFFFFF;" points="405.48,376.933 301.02,376.933 285.399,170.203 421.101,170.203 "/>
<polygon style="fill:#E0E0E0;" points="421.101,170.203 352.976,170.203 352.976,376.933 405.48,376.933 "/>
<polygon style="fill:#DCE6D3;" points="418.952,166.298 287.548,166.298 299.263,144.383 407.237,144.383 "/>
<polygon style="fill:#AEB2AA;" points="407.237,144.383 352.976,144.383 352.976,166.298 418.952,166.298 "/>
<rect x="277.28" y="160.71" style="fill:#C0C0C0;" width="151.94" height="23.376"/>
<rect x="352.98" y="160.71" style="fill:#758F9B;" width="76.25" height="23.376"/>
<rect x="73.5" y="299" style="fill:#C69C6C;" width="365" height="39"/>
<rect x="255.95" y="299" style="fill:#AA805B;" width="182.55" height="39"/>
<g>
</g>
<g>
</g>
<g>
</g>
<g>
</g>
<g>
</g>
<g>
</g>
<g>
</g>
<g>
</g>
<g>
</g>
<g>
</g>
<g>
</g>
<g>
</g>
<g>
</g>
<g>
</g>
<g>
</g>
</svg>
