<?xml version="1.0" encoding="iso-8859-1"?>
<!-- Generator: Adobe Illustrator 19.0.0, SVG Export Plug-In . SVG Version: 6.00 Build 0)  -->
<svg version="1.1" id="Capa_1" xmlns="http://www.w3.org/2000/svg" xmlns:xlink="http://www.w3.org/1999/xlink" x="0px" y="0px"
	 viewBox="0 0 512 512" style="enable-background:new 0 0 512 512;" xml:space="preserve">
<circle style="fill:#5F3817;" cx="256" cy="256" r="256"/>
<path style="fill:#412108;" d="M511.266,275.5L428.2,192.434l-269.271,49.781L90.427,348.732L253.665,511.97
	c0.779,0.007,1.554,0.03,2.335,0.03C390.824,512,501.303,407.774,511.266,275.5z"/>
<path style="fill:#FE9A35;" d="M421.573,348.732c-91.303-94.713-239.843-94.713-331.147,0l0,0
	c-45.796-47.507-30.985-127.62,28.5-154.494c87.195-39.393,186.953-39.393,274.148,0
	C452.559,221.112,467.37,301.225,421.573,348.732L421.573,348.732z"/>
<g>
	<path style="fill:#FF7C11;" d="M393.074,194.238c-43.612-19.703-90.367-29.551-137.121-29.545v113.004
		c59.977-0.012,119.957,23.665,165.621,71.034l0,0C467.37,301.225,452.559,221.112,393.074,194.238z"/>
	<path style="fill:#FF7C11;" d="M332.811,312.721c-42.421-42.421-111.2-42.421-153.621,0L87.658,221.19
		c-9.936-9.936-9.228-26.325,1.633-35.24c96.692-79.371,236.726-79.371,333.418,0c10.861,8.915,11.569,25.304,1.633,35.24
		L332.811,312.721z"/>
</g>
<path style="fill:#F96A00;" d="M422.709,185.949c-48.359-39.696-107.559-59.539-166.756-59.528v154.484
	c27.816-0.012,55.635,10.593,76.858,31.815l91.531-91.531C434.277,211.254,433.569,194.865,422.709,185.949z"/>
<path style="fill:#FE9A35;" d="M228.919,302.57c17.746-5.405,36.417-5.405,54.163,0c19.156,5.835,38.509-8.443,38.509-28.469V148.22
	c0-14.395-10.306-26.67-24.456-29.316c-27.242-5.093-55.027-5.093-82.269,0c-14.15,2.645-24.456,14.92-24.456,29.316v125.881
	C190.409,294.126,209.762,308.404,228.919,302.57z"/>
<path style="fill:#FF7C11;" d="M297.135,118.905c-13.637-2.549-27.409-3.822-41.182-3.819v183.431
	c9.12-0.005,18.24,1.346,27.129,4.053c19.156,5.835,38.509-8.443,38.509-28.469V148.22
	C321.591,133.825,311.284,121.55,297.135,118.905z"/>
<g>
</g>
<g>
</g>
<g>
</g>
<g>
</g>
<g>
</g>
<g>
</g>
<g>
</g>
<g>
</g>
<g>
</g>
<g>
</g>
<g>
</g>
<g>
</g>
<g>
</g>
<g>
</g>
<g>
</g>
</svg>
