<?xml version="1.0" encoding="iso-8859-1"?>
<!-- Generator: Adobe Illustrator 19.0.0, SVG Export Plug-In . SVG Version: 6.00 Build 0)  -->
<svg version="1.1" id="Capa_1" xmlns="http://www.w3.org/2000/svg" xmlns:xlink="http://www.w3.org/1999/xlink" x="0px" y="0px"
	 viewBox="0 0 512 512" style="enable-background:new 0 0 512 512;" xml:space="preserve">
<circle style="fill:#B9EAFF;" cx="256" cy="256" r="256"/>
<path style="fill:#35CCFF;" d="M512,256c0-6.103-0.228-12.152-0.648-18.148L350,76.5l-188,359l75.852,75.852
	C243.848,511.772,249.897,512,256,512C397.385,512,512,397.385,512,256z"/>
<rect x="162" y="76.5" style="fill:#333333;" width="188" height="359"/>
<rect x="255.95" y="76.5" style="fill:#1A1A1A;" width="94.05" height="359"/>
<rect x="181.5" y="98.5" style="fill:#FFFFFF;" width="149" height="296.15"/>
<rect x="255.95" y="98.5" style="fill:#E0E0E0;" width="74.55" height="296.15"/>
<rect x="181.5" y="256" style="fill:#0074A3;" width="149" height="138.65"/>
<rect x="255.95" y="256" style="fill:#005C83;" width="74.55" height="138.65"/>
<circle style="fill:#35CCFF;" cx="256" cy="148.61" r="39.19"/>
<path style="fill:#00BAFF;" d="M256,109.425c-0.016,0-0.032,0.001-0.048,0.001v78.367c0.016,0,0.031,0.001,0.048,0.001
	c21.641,0,39.185-17.544,39.185-39.185S277.641,109.425,256,109.425z"/>
<path style="fill:#35CCFF;" d="M192.391,256c0-35.13,28.479-63.609,63.61-63.609S319.61,220.87,319.609,256H192.391z"/>
<path style="fill:#00BAFF;" d="M256,192.391c-0.016,0-0.032,0.001-0.048,0.001V256h63.657
	C319.61,220.87,291.131,192.391,256,192.391z"/>
<polygon style="fill:#FFDC00;" points="290.547,281.192 192.391,281.192 192.391,318.08 204.051,318.08 204.051,334.616 
	220.587,318.08 290.547,318.08 "/>
<rect x="255.95" y="281.19" style="fill:#FFC000;" width="34.594" height="36.888"/>
<polygon style="fill:#FFDC00;" points="221.453,328.717 319.609,328.717 319.609,365.605 307.949,365.605 307.949,382.141 
	291.413,365.605 221.453,365.605 "/>
<polygon style="fill:#FFC000;" points="255.952,328.717 255.952,365.605 291.413,365.605 307.949,382.141 307.949,365.605 
	319.609,365.605 319.609,328.717 "/>
<g>
</g>
<g>
</g>
<g>
</g>
<g>
</g>
<g>
</g>
<g>
</g>
<g>
</g>
<g>
</g>
<g>
</g>
<g>
</g>
<g>
</g>
<g>
</g>
<g>
</g>
<g>
</g>
<g>
</g>
</svg>
