<?xml version="1.0" encoding="iso-8859-1"?>
<!-- Generator: Adobe Illustrator 19.0.0, SVG Export Plug-In . SVG Version: 6.00 Build 0)  -->
<svg version="1.1" id="Layer_1" xmlns="http://www.w3.org/2000/svg" xmlns:xlink="http://www.w3.org/1999/xlink" x="0px" y="0px"
	 viewBox="0 0 473.935 473.935" style="enable-background:new 0 0 473.935 473.935;" xml:space="preserve">
<circle style="fill:#4ABC96;" cx="236.967" cy="236.967" r="236.967"/>
<g>
	<path style="fill:#B9B9BA;" d="M326.98,338.576c-0.037,7.169-5.875,12.98-13.044,12.98H142.087c-7.162,0-12.935-5.811-12.898-12.98
		l1.441-252.907c0.045-7.162,5.882-12.965,13.044-12.965h171.845c7.169,0,12.943,5.804,12.898,12.965L326.98,338.576z"/>
	<path style="fill:#B9B9BA;" d="M155.288,375.672c-0.007,0.928-0.76,1.68-1.688,1.68h-22.264c-0.928,0-1.68-0.752-1.673-1.68
		l0.269-46.918c0.007-0.921,0.76-1.68,1.688-1.68h22.26c0.928,0,1.673,0.76,1.673,1.68L155.288,375.672z"/>
	<path style="fill:#B9B9BA;" d="M327.287,375.672c-0.007,0.928-0.76,1.68-1.688,1.68h-22.26c-0.928,0-1.68-0.752-1.673-1.68
		l0.269-46.918c0.007-0.921,0.76-1.68,1.688-1.68h22.26c0.928,0,1.673,0.76,1.673,1.68L327.287,375.672z"/>
</g>
<g>
	<path style="fill:#C6C5C5;" d="M330.561,338.576c-0.037,7.169-5.875,12.98-13.036,12.98H145.672c-7.162,0-12.935-5.811-12.89-12.98
		l1.441-252.907c0.037-7.162,5.875-12.965,13.036-12.965h171.853c7.162,0,12.935,5.804,12.898,12.965L330.561,338.576z"/>
	<path style="fill:#C6C5C5;" d="M158.869,375.672c0,0.928-0.76,1.68-1.688,1.68h-22.26c-0.928,0-1.673-0.752-1.665-1.68
		l0.262-46.918c0.007-0.921,0.767-1.68,1.688-1.68h22.26c0.928,0,1.673,0.76,1.673,1.68L158.869,375.672z"/>
	<path style="fill:#C6C5C5;" d="M330.868,375.672c0,0.928-0.76,1.68-1.688,1.68h-22.26c-0.928,0-1.673-0.752-1.665-1.68
		l0.262-46.918c0.007-0.921,0.767-1.68,1.688-1.68h22.26c0.928,0,1.68,0.76,1.673,1.68L330.868,375.672z"/>
</g>
<g>
	<path style="fill:#B9B9BA;" d="M371.754,338.576c1.111,7.169-3.794,12.98-10.956,12.98H188.949c-7.162,0-13.871-5.811-14.982-12.98
		L134.746,85.668c-1.119-7.162,3.787-12.965,10.956-12.965h171.845c7.162,0,13.871,5.804,14.982,12.965L371.754,338.576z"/>
	<path style="fill:#B9B9BA;" d="M206.027,375.672c0.146,0.928-0.49,1.68-1.418,1.68h-22.26c-0.928,0-1.796-0.752-1.946-1.68
		l-7.27-46.918c-0.146-0.921,0.49-1.68,1.418-1.68h22.26c0.928,0,1.796,0.76,1.938,1.68L206.027,375.672z"/>
	<path style="fill:#B9B9BA;" d="M378.025,375.672c0.146,0.928-0.49,1.68-1.418,1.68H354.34c-0.921,0-1.792-0.752-1.938-1.68
		l-7.27-46.918c-0.146-0.921,0.49-1.68,1.418-1.68h22.26c0.928,0,1.792,0.76,1.946,1.68L378.025,375.672z"/>
</g>
<path style="fill:#DDDDDC;" d="M377.487,338.576c1.119,7.169-3.787,12.98-10.956,12.98H194.685c-7.162,0-13.871-5.811-14.982-12.98
	L140.474,85.668c-1.111-7.162,3.794-12.965,10.956-12.965h171.853c7.162,0,13.871,5.804,14.982,12.965L377.487,338.576z"/>
<path style="fill:#565453;" d="M351.908,311.279c0.868,5.62-2.975,10.174-8.595,10.174H208.564c-5.613,0-10.874-4.554-11.745-10.174
	l-30.757-198.307c-0.876-5.613,2.967-10.166,8.595-10.166h134.742c5.62,0,10.881,4.554,11.753,10.166L351.908,311.279z"/>
<g>
	<path style="fill:#DDDDDC;" d="M211.759,375.672c0.146,0.928-0.49,1.68-1.418,1.68h-22.26c-0.928,0-1.792-0.752-1.938-1.68
		l-7.278-46.918c-0.146-0.921,0.49-1.68,1.418-1.68h22.267c0.92,0,1.792,0.76,1.938,1.68L211.759,375.672z"/>
	<path style="fill:#DDDDDC;" d="M383.754,375.672c0.153,0.928-0.49,1.68-1.418,1.68h-22.26c-0.928,0-1.792-0.752-1.938-1.68
		l-7.278-46.918c-0.146-0.921,0.498-1.68,1.418-1.68h22.267c0.92,0,1.792,0.76,1.938,1.68L383.754,375.672z"/>
	<path style="fill:#DDDDDC;" d="M305.85,128.093c0,2.11-1.71,3.82-3.817,3.82H192.141c-2.11,0-3.82-1.71-3.82-3.82l0,0
		c0-2.11,1.71-3.82,3.82-3.82h109.896C304.14,124.269,305.85,125.979,305.85,128.093L305.85,128.093z"/>
	<path style="fill:#DDDDDC;" d="M309.674,151.026c0,2.11-1.71,3.82-3.82,3.82H195.965c-2.11,0-3.82-1.71-3.82-3.82l0,0
		c0-2.11,1.71-3.82,3.82-3.82H305.85C307.964,147.202,309.674,148.912,309.674,151.026L309.674,151.026z"/>
	<path style="fill:#DDDDDC;" d="M313.502,173.959c0,2.11-1.71,3.82-3.82,3.82H199.785c-2.11,0-3.82-1.71-3.82-3.82l0,0
		c0-2.11,1.71-3.82,3.82-3.82h109.893C311.792,170.135,313.502,171.845,313.502,173.959L313.502,173.959z"/>
</g>
<g>
</g>
<g>
</g>
<g>
</g>
<g>
</g>
<g>
</g>
<g>
</g>
<g>
</g>
<g>
</g>
<g>
</g>
<g>
</g>
<g>
</g>
<g>
</g>
<g>
</g>
<g>
</g>
<g>
</g>
</svg>
